<svg width="168" height="60" viewBox="0 0 168 60" fill="none" xmlns="http://www.w3.org/2000/svg">
<path d="M13.7704 0C6.14156 0 0 6.19438 0 13.8888V46.1112C0 53.8056 6.14156 60 13.7704 60H154.23C161.858 60 168 53.8056 168 46.1112V13.8888C168 6.19438 161.858 0 154.23 0H13.7704ZM127.858 18.0712H131.875V20.6113H128.432C127.709 20.6113 127.157 20.815 126.774 21.2223C126.391 21.6296 126.2 22.1975 126.2 22.9263V25.1449H131.237V27.685H126.2V41.5426H123.236V27.685H120.398V25.1449H123.236V22.7334C123.236 21.2758 123.64 20.1399 124.447 19.3253C125.276 18.4894 126.413 18.0712 127.858 18.0712ZM26.4406 18.65C27.652 18.65 28.7147 18.9288 29.6286 19.4861C30.5424 20.022 31.2544 20.7615 31.7644 21.7047C32.2745 22.6478 32.5297 23.7087 32.5297 24.8876V36.109C32.5297 36.6877 32.6675 37.2128 32.9438 37.6844C33.2201 38.1558 33.5815 38.5312 34.0278 38.8099C34.4954 39.0885 34.9947 39.2279 35.526 39.2279C36.0574 39.2279 36.5464 39.0885 36.9927 38.8099C37.439 38.5312 37.7895 38.1558 38.0445 37.6844C38.3208 37.2128 38.459 36.6877 38.459 36.109V19.0359H41.5192V35.6909C41.5192 36.8699 41.2643 37.931 40.7543 38.8742C40.2442 39.8173 39.5429 40.5676 38.6503 41.1249C37.7577 41.6608 36.7162 41.9285 35.526 41.9285C34.3359 41.9285 33.2841 41.6608 32.3702 41.1249C31.4776 40.5676 30.7763 39.8173 30.2663 38.8742C29.7562 37.931 29.501 36.8699 29.501 35.6909V24.4696C29.501 23.8908 29.3628 23.3657 29.0866 22.8942C28.8103 22.4226 28.4385 22.0476 27.971 21.769C27.5034 21.4903 26.9931 21.3509 26.4406 21.3509C25.888 21.3509 25.3781 21.4903 24.9105 21.769C24.4642 22.0476 24.1031 22.4226 23.8268 22.8942C23.5718 23.3657 23.4442 23.8908 23.4442 24.4696V41.5426H20.3837V24.8876C20.3837 23.7087 20.6388 22.6478 21.1489 21.7047C21.659 20.7615 22.3709 20.022 23.2848 19.4861C24.1986 18.9288 25.2504 18.65 26.4406 18.65ZM61.53 18.65C62.3163 18.65 63.007 18.8537 63.6021 19.261C64.2184 19.6468 64.6861 20.2791 65.0049 21.158L72.6238 41.5426H69.2766L67.3321 36.109H55.6644L53.6879 41.5426H50.4683L58.0553 21.1901C58.3953 20.3113 58.8628 19.6683 59.4579 19.261C60.0529 18.8537 60.7436 18.65 61.53 18.65ZM87.0712 19.0359H96.5393V21.769H87.3582C86.6569 21.769 86.0406 21.9402 85.5093 22.2832C84.978 22.6047 84.5743 23.0336 84.298 23.5695C84.0218 24.0839 83.8835 24.6412 83.8835 25.2413C83.8835 25.8201 84.0111 26.3773 84.2662 26.9132C84.5424 27.4277 84.9354 27.8458 85.4455 28.1674C85.9768 28.4889 86.5825 28.6494 87.2626 28.6494H91.5662C92.9051 28.6494 94.0529 28.9174 95.0092 29.4533C95.9656 29.9892 96.6988 30.718 97.2089 31.6397C97.7189 32.5614 97.9737 33.6119 97.9737 34.7908C97.9737 36.0984 97.7083 37.2664 97.177 38.2953C96.6669 39.3028 95.9337 40.0959 94.9774 40.6747C94.021 41.2534 92.9263 41.5426 91.6937 41.5426H81.6839V38.8099H91.343C92.0868 38.8099 92.7244 38.6383 93.2557 38.2953C93.787 37.9309 94.2016 37.4702 94.4991 36.9129C94.7966 36.3556 94.9455 35.7658 94.9455 35.1442C94.9455 34.5012 94.7966 33.9118 94.4991 33.3759C94.2228 32.8186 93.8189 32.3793 93.2875 32.0578C92.7775 31.7148 92.1506 31.5432 91.4067 31.5432H87.1988C85.9449 31.5432 84.8399 31.2859 83.8835 30.7715C82.9272 30.2356 82.1727 29.5068 81.6201 28.5851C81.0888 27.6419 80.8231 26.5811 80.8231 25.4021C80.8231 24.2018 81.0782 23.1191 81.5883 22.1545C82.1196 21.19 82.8528 20.429 83.7879 19.8717C84.7443 19.3144 85.8386 19.0359 87.0712 19.0359ZM61.53 21.3509C61.3174 21.3509 61.1477 21.426 61.0202 21.576C60.8926 21.7261 60.7863 21.9402 60.7013 22.2189L56.6209 33.3759H66.4075L62.4227 22.2189C62.3164 21.9402 62.1995 21.7261 62.072 21.576C61.9445 21.426 61.7637 21.3509 61.53 21.3509ZM109.321 24.759C111.043 24.759 112.52 25.1342 113.752 25.8845C114.985 26.6347 115.931 27.6527 116.59 28.9388C117.27 30.2249 117.609 31.6611 117.609 33.2473V41.5426H114.645V38.1989H114.581C114.262 38.8205 113.827 39.4206 113.274 39.9994C112.743 40.5567 112.073 41.0178 111.266 41.3822C110.458 41.7465 109.513 41.9285 108.429 41.9285C106.856 41.9285 105.496 41.5535 104.348 40.8033C103.2 40.0317 102.319 38.9919 101.702 37.6844C101.086 36.3768 100.778 34.9299 100.778 33.3437C100.778 31.7361 101.118 30.2892 101.798 29.0031C102.478 27.6956 103.455 26.6669 104.731 25.9166C106.006 25.145 107.536 24.759 109.321 24.759ZM140.093 24.759C141.772 24.759 143.164 25.1235 144.269 25.8523C145.396 26.5811 146.235 27.5669 146.787 28.8102C147.34 30.032 147.616 31.4038 147.616 32.9257C147.616 33.1615 147.606 33.4081 147.584 33.6653C147.584 33.9225 147.563 34.1477 147.521 34.3406H135.407C135.513 35.3481 135.842 36.2055 136.395 36.9129C136.948 37.5988 137.649 38.1239 138.499 38.4883C139.37 38.8312 140.327 39.0028 141.368 39.0028H145.608V41.5426H141.432C139.647 41.5426 138.063 41.2106 136.682 40.5461C135.301 39.8601 134.217 38.9062 133.43 37.6844C132.665 36.4411 132.283 34.9943 132.283 33.3437C132.283 31.7147 132.612 30.2571 133.271 28.971C133.93 27.6634 134.843 26.6347 136.012 25.8845C137.181 25.1342 138.541 24.759 140.093 24.759ZM140.093 27.2348C139.349 27.2348 138.69 27.3849 138.116 27.685C137.564 27.9636 137.086 28.3493 136.682 28.8423C136.278 29.3139 135.97 29.85 135.758 30.4502C135.545 31.0504 135.417 31.6505 135.375 32.2507H144.651C144.651 31.8434 144.609 31.4145 144.524 30.9644C144.439 30.4928 144.29 30.0428 144.078 29.6141C143.865 29.164 143.578 28.7673 143.217 28.4243C142.877 28.0599 142.441 27.7707 141.91 27.5564C141.4 27.342 140.794 27.2348 140.093 27.2348ZM109.257 27.2991C108.11 27.2991 107.122 27.5672 106.293 28.103C105.485 28.6389 104.858 29.3677 104.412 30.2894C103.987 31.1897 103.774 32.2184 103.774 33.3759C103.774 34.4905 103.987 35.5088 104.412 36.4305C104.837 37.3308 105.453 38.0489 106.261 38.5848C107.069 39.1206 108.046 39.3884 109.194 39.3884C110.256 39.3884 111.191 39.1314 111.999 38.6169C112.828 38.081 113.465 37.3523 113.912 36.4305C114.379 35.4874 114.613 34.4369 114.613 33.2794C114.613 32.1434 114.39 31.1254 113.943 30.2251C113.518 29.3248 112.902 28.6175 112.095 28.103C111.287 27.5672 110.341 27.2991 109.257 27.2991ZM47.0578 37.62C47.6316 37.62 48.1203 37.8345 48.5241 38.2632C48.9492 38.6704 49.1618 39.1634 49.1618 39.7421C49.1618 40.1279 49.0661 40.4818 48.8748 40.8033C48.7048 41.1248 48.4603 41.3819 48.1415 41.5748C47.8227 41.7677 47.4616 41.8642 47.0578 41.8642C46.4839 41.8642 45.9843 41.6608 45.5593 41.2535C45.1555 40.8248 44.9538 40.3209 44.9538 39.7421C44.9538 39.1634 45.1555 38.6704 45.5593 38.2632C45.9843 37.8345 46.4839 37.62 47.0578 37.62ZM76.01 37.62C76.5838 37.62 77.0725 37.8345 77.4763 38.2632C77.9013 38.6704 78.1139 39.1634 78.1139 39.7421C78.1139 40.1279 78.0182 40.4818 77.827 40.8033C77.657 41.1248 77.4125 41.3819 77.0937 41.5748C76.7749 41.7677 76.4138 41.8642 76.01 41.8642C75.4361 41.8642 74.9368 41.6608 74.5118 41.2535C74.108 40.8248 73.906 40.3209 73.906 39.7421C73.906 39.1634 74.108 38.6704 74.5118 38.2632C74.9368 37.8345 75.4361 37.62 76.01 37.62Z" fill="#3A2264"/>
</svg>
